<svg width="23" height="21" viewBox="0 0 23 21" fill="none" xmlns="http://www.w3.org/2000/svg">
<path d="M16.976 3.46406L22.4924 9.22031C22.8158 9.55781 23 10.0219 23 10.5C23 10.9781 22.8158 11.4422 22.4924 11.7797L16.976 17.5359C16.6885 17.8359 16.3021 18 15.8979 18C15.0578 18 14.375 17.2875 14.375 16.4109V13.5H8.625C7.82988 13.5 7.1875 12.8297 7.1875 12V9C7.1875 8.17031 7.82988 7.5 8.625 7.5H14.375V4.58906C14.375 3.7125 15.0578 3 15.8979 3C16.3021 3 16.6885 3.16875 16.976 3.46406ZM7.1875 3H4.3125C3.51738 3 2.875 3.67031 2.875 4.5V16.5C2.875 17.3297 3.51738 18 4.3125 18H7.1875C7.98262 18 8.625 18.6703 8.625 19.5C8.625 20.3297 7.98262 21 7.1875 21H4.3125C1.93164 21 0 18.9844 0 16.5V4.5C0 2.01562 1.93164 0 4.3125 0H7.1875C7.98262 0 8.625 0.670312 8.625 1.5C8.625 2.32969 7.98262 3 7.1875 3Z" fill="black"/>
</svg>
