<svg width="21" height="20" viewBox="0 0 21 20" fill="none" xmlns="http://www.w3.org/2000/svg">
<path d="M10.4243 0C9.63414 0 8.99575 0.558594 8.99575 1.25V2C5.73687 2.57813 3.28154 5.10156 3.28154 8.125V8.85938C3.28154 10.6953 2.50923 12.4687 1.11639 13.8437L0.786041 14.168C0.411046 14.5352 0.321761 15.0625 0.549437 15.5117C0.777112 15.9609 1.2905 16.25 1.85299 16.25H18.9956C19.5581 16.25 20.067 15.9609 20.2992 15.5117C20.5313 15.0625 20.4376 14.5352 20.0626 14.168L19.7322 13.8437C18.3394 12.4687 17.5671 10.6992 17.5671 8.85938V8.125C17.5671 5.10156 15.1117 2.57813 11.8529 2V1.25C11.8529 0.558594 11.2145 0 10.4243 0ZM12.4466 19.2695C12.9823 18.8008 13.2814 18.1641 13.2814 17.5H10.4243H7.5672C7.5672 18.1641 7.8663 18.8008 8.40201 19.2695C8.93772 19.7383 9.66539 20 10.4243 20C11.1832 20 11.9109 19.7383 12.4466 19.2695Z" fill="black"/>
</svg>
