<svg width="16" height="16" viewBox="0 0 16 16" fill="none" xmlns="http://www.w3.org/2000/svg">
<path d="M8.42438 0C7.79225 0 7.28154 0.446875 7.28154 1V1.6C4.67443 2.0625 2.71017 4.08125 2.71017 6.5V7.0875C2.71017 8.55625 2.09232 9.975 0.978051 11.075L0.713769 11.3344C0.413773 11.6281 0.342345 12.05 0.524486 12.4094C0.706626 12.7688 1.11734 13 1.56733 13H15.2814C15.7314 13 16.1386 12.7688 16.3243 12.4094C16.51 12.05 16.435 11.6281 16.135 11.3344L15.8707 11.075C14.7564 9.975 14.1386 8.55937 14.1386 7.0875V6.5C14.1386 4.08125 12.1743 2.0625 9.56722 1.6V1C9.56722 0.446875 9.05652 0 8.42438 0ZM10.0422 15.4156C10.4708 15.0406 10.7101 14.5312 10.7101 14H8.42438H6.1387C6.1387 14.5312 6.37798 15.0406 6.80655 15.4156C7.23511 15.7906 7.81725 16 8.42438 16C9.03152 16 9.61365 15.7906 10.0422 15.4156Z" fill="black"/>
</svg>
