<svg width="16" height="16" viewBox="0 0 16 16" fill="none" xmlns="http://www.w3.org/2000/svg">
<path d="M8.25537 8C9.46779 8 10.6306 7.57857 11.4879 6.82843C12.3452 6.07828 12.8268 5.06087 12.8268 4C12.8268 2.93913 12.3452 1.92172 11.4879 1.17157C10.6306 0.421427 9.46779 0 8.25537 0C7.04295 0 5.88019 0.421427 5.02288 1.17157C4.16557 1.92172 3.68394 2.93913 3.68394 4C3.68394 5.06087 4.16557 6.07828 5.02288 6.82843C5.88019 7.57857 7.04295 8 8.25537 8ZM6.62323 9.5C3.10537 9.5 0.255371 11.9937 0.255371 15.0719C0.255371 15.5844 0.730371 16 1.31609 16H15.1947C15.7804 16 16.2554 15.5844 16.2554 15.0719C16.2554 11.9937 13.4054 9.5 9.88752 9.5H6.62323Z" fill="black"/>
</svg>
