<svg width="21" height="20" viewBox="0 0 21 20" fill="none" xmlns="http://www.w3.org/2000/svg">
<path d="M10.2554 10C11.7709 10 13.2243 9.47322 14.296 8.53553C15.3676 7.59785 15.9697 6.32608 15.9697 5C15.9697 3.67392 15.3676 2.40215 14.296 1.46447C13.2243 0.526784 11.7709 0 10.2554 0C8.73985 0 7.2864 0.526784 6.21476 1.46447C5.14312 2.40215 4.54109 3.67392 4.54109 5C4.54109 6.32608 5.14312 7.59785 6.21476 8.53553C7.2864 9.47322 8.73985 10 10.2554 10ZM8.21519 11.875C3.81787 11.875 0.255371 14.9922 0.255371 18.8398C0.255371 19.4805 0.849121 20 1.58126 20H18.9295C19.6616 20 20.2554 19.4805 20.2554 18.8398C20.2554 14.9922 16.6929 11.875 12.2956 11.875H8.21519Z" fill="black"/>
</svg>
